<svg xmlns="http://www.w3.org/2000/svg" height="48" viewBox="0 -960 960 960" width="48"><path d="M236.769-107.615q-28.42 0-48.403-20.301-19.982-20.301-19.982-48.084v-500.308h43.77V-176q0 9.231 7.692 16.923 7.692 7.693 16.923 7.693h374.924v43.769H236.769Zm127.538-127.539q-28.42 0-48.402-20.301t-19.982-48.083v-471.693q0-27.783 19.982-48.084 19.982-20.301 48.402-20.301H715q27.783 0 48.084 20.301 20.301 20.301 20.301 48.084v471.693q0 27.782-20.301 48.083T715-235.154H364.307Zm0-43.769H715q9.231 0 16.923-7.692 7.692-7.693 7.692-16.923v-471.693q0-9.231-7.692-16.923-7.692-7.692-16.923-7.692H364.307q-9.23 0-16.923 7.692-7.692 7.692-7.692 16.923v471.693q0 9.23 7.692 16.923 7.693 7.692 16.923 7.692Zm-24.615 0v-520.923 520.923Z"/></svg>